# xmcd
#
# Track frame offsets: 
#        150
#        20382
#        42262
#        58055
#        75725
#        96440
#        110997
#        130730
#        155095
#        178017
#        184572
#        201252
#
# Disc length: 2973 seconds
#
# Revision: 1
# Processed by: cddbd v1.5.2PL0 Copyright (c) Steve Scherf et al.
# Submitted via: ExactAudioCopyFreeDBPlugin 1.0
#
DISCID=a70b9b0c
DTITLE=村松健 - カレンダー　〜ぶどう畑のぶどう作り〜
DYEAR=1987
DGENRE=Acoustic
TTITLE0=ぶどう色のときめき〜1月
TTITLE1=野こぶしの木〜2月
TTITLE2=れんげ草〜3月
TTITLE3=花まつり〜4月
TTITLE4=海につづく小径〜5月
TTITLE5=ジャコウアゲハの動揺〜6月
TTITLE6=光のイリュージョン〜7月
TTITLE7=ひまわり〜8月
TTITLE8=待宵草〜9月
TTITLE9=柿の葉あつめ〜10月
TTITLE10=大きなとちの木〜11月
TTITLE11=喜びは悲しみとともに〜12月
EXTD=YEAR: 1987
EXTT0=
EXTT1=
EXTT2=
EXTT3=
EXTT4=
EXTT5=
EXTT6=
EXTT7=
EXTT8=
EXTT9=
EXTT10=
EXTT11=
PLAYORDER=
